HIERARCHY
ROOT Hips
{
	OFFSET -19.144548 87.740608 40.654285
	CHANNELS 6 Xposition Yposition Zposition Zrotation Yrotation Xrotation 
	JOINT Spine
	{
		OFFSET 0.000000 8.814246 -2.080107
		CHANNELS 3 Zrotation Yrotation Xrotation
		JOINT Spine1
		{
			OFFSET -0.000000 8.844141 0.000000
			CHANNELS 3 Zrotation Yrotation Xrotation
			JOINT Spine2
			{
				OFFSET -0.000000 11.682268 0.000000
				CHANNELS 3 Zrotation Yrotation Xrotation
				JOINT Spine3
				{
					OFFSET 0.000000 11.746700 -0.000000
					CHANNELS 3 Zrotation Yrotation Xrotation
					JOINT Neck
					{
						OFFSET -0.000000 17.658264 0.000000
						CHANNELS 3 Zrotation Yrotation Xrotation
						JOINT Neck1
						{
							OFFSET 0.000000 5.101515 0.000000
							CHANNELS 3 Zrotation Yrotation Xrotation
							JOINT Head
							{
								OFFSET 0.000000 5.101515 0.000000
								CHANNELS 3 Zrotation Yrotation Xrotation
								JOINT HeadEnd
								{
									OFFSET 0.000000 11.655085 0.000000
									CHANNELS 3 Zrotation Yrotation Xrotation
									End Site
									{
										OFFSET 0.000000 0.000000 0.000000
									}
								}
							}
						}
					}
					JOINT RightShoulder
					{
						OFFSET -2.625389 11.175210 0.000000
						CHANNELS 3 Zrotation Yrotation Xrotation
						JOINT RightArm
						{
							OFFSET -0.000000 10.434715 -0.000000
							CHANNELS 3 Zrotation Yrotation Xrotation
							JOINT RightForeArm
							{
								OFFSET -0.000000 29.628420 -0.000000
								CHANNELS 3 Zrotation Yrotation Xrotation
								JOINT RightHand
								{
									OFFSET 0.000000 22.857611 0.000000
									CHANNELS 3 Zrotation Yrotation Xrotation
									JOINT RightHandThumb1
									{
										OFFSET -2.867323 3.959563 2.944291
										CHANNELS 3 Zrotation Yrotation Xrotation
										JOINT RightHandThumb2
										{
											OFFSET -0.000000 3.350399 -0.000000
											CHANNELS 3 Zrotation Yrotation Xrotation
											JOINT RightHandThumb3
											{
												OFFSET -0.000000 3.756509 -0.000000
												CHANNELS 3 Zrotation Yrotation Xrotation
												JOINT RightHandThumb4
												{
													OFFSET 0.000000 3.147345 -0.000000
													CHANNELS 3 Zrotation Yrotation Xrotation
													End Site
													{
														OFFSET 0.000000 0.000000 0.000000
													}
												}
											}
										}
									}
									JOINT RightHandIndex1
									{
										OFFSET -0.086752 10.030893 2.345280
										CHANNELS 3 Zrotation Yrotation Xrotation
										JOINT RightHandIndex2
										{
											OFFSET -0.000000 4.061090 0.000000
											CHANNELS 3 Zrotation Yrotation Xrotation
											JOINT RightHandIndex3
											{
												OFFSET -0.000000 3.248873 -0.000000
												CHANNELS 3 Zrotation Yrotation Xrotation
												JOINT RightHandIndex4
												{
													OFFSET 0.000000 2.639709 0.000000
													CHANNELS 3 Zrotation Yrotation Xrotation
													End Site
													{
														OFFSET 0.000000 0.000000 0.000000
													}
												}
											}
										}
									}
									JOINT RightHandMiddle1
									{
										OFFSET 0.104102 9.502952 0.006768
										CHANNELS 3 Zrotation Yrotation Xrotation
										JOINT RightHandMiddle2
										{
											OFFSET -0.000000 4.568727 0.000000
											CHANNELS 3 Zrotation Yrotation Xrotation
											JOINT RightHandMiddle3
											{
												OFFSET 0.000000 3.654981 0.000000
												CHANNELS 3 Zrotation Yrotation Xrotation
												JOINT RightHandMiddle4
												{
													OFFSET 0.000000 2.741236 -0.000000
													CHANNELS 3 Zrotation Yrotation Xrotation
													End Site
													{
														OFFSET 0.000000 0.000000 0.000000
													}
												}
											}
										}
									}
									JOINT RightHandRing1
									{
										OFFSET 0.086752 8.921708 -2.267442
										CHANNELS 3 Zrotation Yrotation Xrotation
										JOINT RightHandRing2
										{
											OFFSET 0.000000 4.061090 0.000000
											CHANNELS 3 Zrotation Yrotation Xrotation
											JOINT RightHandRing3
											{
												OFFSET 0.000000 3.654981 0.000000
												CHANNELS 3 Zrotation Yrotation Xrotation
												JOINT RightHandRing4
												{
													OFFSET -0.000000 2.741236 -0.000000
													CHANNELS 3 Zrotation Yrotation Xrotation
													End Site
													{
														OFFSET 0.000000 0.000000 0.000000
													}
												}
											}
										}
									}
									JOINT RightHandPinky1
									{
										OFFSET -0.173504 7.976997 -4.467199
										CHANNELS 3 Zrotation Yrotation Xrotation
										JOINT RightHandPinky2
										{
											OFFSET -0.000000 3.350399 -0.000000
											CHANNELS 3 Zrotation Yrotation Xrotation
											JOINT RightHandPinky3
											{
												OFFSET 0.000000 2.842763 -0.000000
												CHANNELS 3 Zrotation Yrotation Xrotation
												JOINT RightHandPinky4
												{
													OFFSET 0.000000 2.639709 0.000000
													CHANNELS 3 Zrotation Yrotation Xrotation
													End Site
													{
														OFFSET 0.000000 0.000000 0.000000
													}
												}
											}
										}
									}
									JOINT RightForeArmEnd
									{
										OFFSET 0.000000 0.000000 0.000000
										CHANNELS 3 Zrotation Yrotation Xrotation
										End Site
										{
											OFFSET 0.000000 0.000000 0.000000
										}
									}
								}
								JOINT RightArmEnd
								{
									OFFSET 0.000000 0.000000 0.000000
									CHANNELS 3 Zrotation Yrotation Xrotation
									End Site
									{
										OFFSET 0.000000 0.000000 0.000000
									}
								}
							}
						}
					}
					JOINT LeftShoulder
					{
						OFFSET 2.625389 11.175210 -0.000000
						CHANNELS 3 Zrotation Yrotation Xrotation
						JOINT LeftArm
						{
							OFFSET -0.000000 10.813635 -0.000000
							CHANNELS 3 Zrotation Yrotation Xrotation
							JOINT LeftForeArm
							{
								OFFSET -0.000000 28.724781 0.000000
								CHANNELS 3 Zrotation Yrotation Xrotation
								JOINT LeftHand
								{
									OFFSET 0.644384 25.716167 -0.328871
									CHANNELS 3 Zrotation Yrotation Xrotation
									JOINT LeftHandThumb1
									{
										OFFSET 2.867323 3.959563 2.944291
										CHANNELS 3 Zrotation Yrotation Xrotation
										JOINT LeftHandThumb2
										{
											OFFSET 0.000000 3.350399 -0.000000
											CHANNELS 3 Zrotation Yrotation Xrotation
											JOINT LeftHandThumb3
											{
												OFFSET 0.000000 3.756509 0.000000
												CHANNELS 3 Zrotation Yrotation Xrotation
												JOINT LeftHandThumb4
												{
													OFFSET 0.000000 3.100000 -0.000000
													CHANNELS 3 Zrotation Yrotation Xrotation
													End Site
													{
														OFFSET 0.000000 0.000000 0.000000
													}
												}
											}
										}
									}
									JOINT LeftHandIndex1
									{
										OFFSET 0.086752 10.030893 2.345280
										CHANNELS 3 Zrotation Yrotation Xrotation
										JOINT LeftHandIndex2
										{
											OFFSET 0.000000 4.061090 -0.000000
											CHANNELS 3 Zrotation Yrotation Xrotation
											JOINT LeftHandIndex3
											{
												OFFSET -0.000000 3.248873 0.000000
												CHANNELS 3 Zrotation Yrotation Xrotation
												JOINT LeftHandIndex4
												{
													OFFSET 0.000000 2.639709 -0.000000
													CHANNELS 3 Zrotation Yrotation Xrotation
													End Site
													{
														OFFSET 0.000000 0.000000 0.000000
													}
												}
											}
										}
									}
									JOINT LeftHandMiddle1
									{
										OFFSET -0.104102 9.502952 0.006768
										CHANNELS 3 Zrotation Yrotation Xrotation
										JOINT LeftHandMiddle2
										{
											OFFSET 0.000000 4.568727 -0.000000
											CHANNELS 3 Zrotation Yrotation Xrotation
											JOINT LeftHandMiddle3
											{
												OFFSET -0.000000 3.654981 0.000000
												CHANNELS 3 Zrotation Yrotation Xrotation
												JOINT LeftHandMiddle4
												{
													OFFSET -0.000000 2.741236 -0.000000
													CHANNELS 3 Zrotation Yrotation Xrotation
													End Site
													{
														OFFSET 0.000000 0.000000 0.000000
													}
												}
											}
										}
									}
									JOINT LeftHandRing1
									{
										OFFSET -0.086752 8.921708 -2.267442
										CHANNELS 3 Zrotation Yrotation Xrotation
										JOINT LeftHandRing2
										{
											OFFSET 0.000000 4.061090 -0.000000
											CHANNELS 3 Zrotation Yrotation Xrotation
											JOINT LeftHandRing3
											{
												OFFSET -0.000000 3.654981 0.000000
												CHANNELS 3 Zrotation Yrotation Xrotation
												JOINT LeftHandRing4
												{
													OFFSET 0.000000 2.741236 0.000000
													CHANNELS 3 Zrotation Yrotation Xrotation
													End Site
													{
														OFFSET 0.000000 0.000000 0.000000
													}
												}
											}
										}
									}
									JOINT LeftHandPinky1
									{
										OFFSET 0.173504 7.976997 -4.467199
										CHANNELS 3 Zrotation Yrotation Xrotation
										JOINT LeftHandPinky2
										{
											OFFSET -0.000000 3.350399 -0.000000
											CHANNELS 3 Zrotation Yrotation Xrotation
											JOINT LeftHandPinky3
											{
												OFFSET -0.000000 2.842763 0.000000
												CHANNELS 3 Zrotation Yrotation Xrotation
												JOINT LeftHandPinky4
												{
													OFFSET -0.000000 2.639709 0.000000
													CHANNELS 3 Zrotation Yrotation Xrotation
													End Site
													{
														OFFSET 0.000000 0.000000 0.000000
													}
												}
											}
										}
									}
									JOINT LeftForeArmEnd
									{
										OFFSET 0.000000 0.000000 0.000000
										CHANNELS 3 Zrotation Yrotation Xrotation
										End Site
										{
											OFFSET 0.000000 0.000000 0.000000
										}
									}
								}
								JOINT LeftArmEnd
								{
									OFFSET 0.000000 0.000000 0.000000
									CHANNELS 3 Zrotation Yrotation Xrotation
									End Site
									{
										OFFSET 0.000000 0.000000 0.000000
									}
								}
							}
						}
					}
				}
			}
		}
	}
	JOINT RightUpLeg
	{
		OFFSET -11.289943 -0.000000 -0.000000
		CHANNELS 3 Zrotation Yrotation Xrotation
		JOINT RightLeg
		{
			OFFSET 0.000000 -38.200325 -0.000000
			CHANNELS 3 Zrotation Yrotation Xrotation
			JOINT RightFoot
			{
				OFFSET -0.000000 -39.900856 -0.000000
				CHANNELS 3 Zrotation Yrotation Xrotation
				JOINT RightToeBase
				{
					OFFSET -0.000000 -0.000000 15.261641
					CHANNELS 3 Zrotation Yrotation Xrotation
					JOINT RightToeBaseEnd
					{
						OFFSET -0.000000 0.000000 7.370709
						CHANNELS 3 Zrotation Yrotation Xrotation
						End Site
						{
							OFFSET 0.000000 0.000000 0.000000
						}
					}
				}
				JOINT RightLegEnd
				{
					OFFSET 0.000000 0.000000 0.000000
					CHANNELS 3 Zrotation Yrotation Xrotation
					End Site
					{
						OFFSET 0.000000 0.000000 0.000000
					}
				}
			}
			JOINT RightUpLegEnd
			{
				OFFSET 0.000000 0.000000 0.000000
				CHANNELS 3 Zrotation Yrotation Xrotation
				End Site
				{
					OFFSET 0.000000 0.000000 0.000000
				}
			}
		}
	}
	JOINT LeftUpLeg
	{
		OFFSET 11.315661 0.000000 0.000000
		CHANNELS 3 Zrotation Yrotation Xrotation
		JOINT LeftLeg
		{
			OFFSET 0.000000 -38.200325 0.000000
			CHANNELS 3 Zrotation Yrotation Xrotation
			JOINT LeftFoot
			{
				OFFSET 0.000000 -39.900856 -0.000000
				CHANNELS 3 Zrotation Yrotation Xrotation
				JOINT LeftToeBase
				{
					OFFSET 0.000000 0.000000 15.261641
					CHANNELS 3 Zrotation Yrotation Xrotation
					JOINT LeftToeBaseEnd
					{
						OFFSET -0.000000 0.000000 7.539996
						CHANNELS 3 Zrotation Yrotation Xrotation
						End Site
						{
							OFFSET 0.000000 0.000000 0.000000
						}
					}
				}
				JOINT LeftLegEnd
				{
					OFFSET 0.000000 0.000000 0.000000
					CHANNELS 3 Zrotation Yrotation Xrotation
					End Site
					{
						OFFSET 0.000000 0.000000 0.000000
					}
				}
			}
			JOINT LeftUpLegEnd
			{
				OFFSET 0.000000 0.000000 0.000000
				CHANNELS 3 Zrotation Yrotation Xrotation
				End Site
				{
					OFFSET 0.000000 0.000000 0.000000
				}
			}
		}
	}
}
MOTION
Frames: 5
Frame Time: 0.016667
17.645191 86.408035 11.478984 2.628855 -2.119300 -6.668140 -3.024657 -0.446552 5.170876 0.777301 0.291083 -4.597686 -1.846745 1.451006 14.751659 -0.901169 0.518843 -2.013409 4.944833 2.181903 10.750333 -2.721903 0.792496 -7.660059 0.947864 3.589843 -23.904484 0.000000 0.000000 0.000000 98.586586 -0.895991 5.509888 55.637508 -34.231853 4.683524 2.949190 21.798635 37.286366 1.247968 13.430125 -11.584264 9.441424 -1.728222 40.406590 -0.000000 0.000000 -23.040001 0.000000 0.000000 -16.000000 0.000000 0.000000 0.000000 10.702891 -0.000000 -8.981514 7.492024 0.000000 0.000000 7.492024 0.000000 0.000000 0.000000 -0.000000 -0.000000 11.552186 -0.000000 -10.683683 8.086531 -0.000000 0.000000 8.086531 -0.000000 -0.000000 0.000000 0.000000 0.000000 13.769032 -0.000000 -11.260921 9.638323 -0.000000 -0.000000 9.638323 0.000000 -0.000000 0.000000 0.000000 0.000000 15.224137 -0.000000 -13.713819 10.656897 -0.000000 0.000000 10.656897 -0.000000 0.000000 -0.000000 -0.000000 -0.000000 0.000000 -0.000000 -0.000000 0.000000 0.000000 -0.000000 -94.671776 0.397243 3.288457 -44.699261 31.903503 9.474007 -3.683035 -16.123571 51.072884 -1.513726 -1.682123 -16.714832 -12.135554 1.950834 39.216908 0.000000 -0.000000 -29.520000 -0.000000 0.000000 -20.500000 -0.000000 0.000000 0.000000 -27.012747 0.000000 -10.790308 -18.908922 -0.000000 -0.000000 -18.908922 0.000000 -0.000000 0.000000 -0.000000 -0.000000 -25.004183 -0.000000 -11.697641 -17.502928 0.000000 0.000000 -17.502928 -0.000000 -0.000000 -0.000000 0.000000 -0.000000 -21.311855 0.000000 -10.515395 -14.918299 -0.000000 -0.000000 -14.918299 -0.000000 -0.000000 -0.000000 0.000000 -0.000000 -16.574316 -0.000000 -10.143527 -11.602022 0.000000 -0.000000 -11.602022 -0.000000 0.000000 -0.000000 -0.000000 0.000000 0.000000 -0.000000 0.000000 -0.000000 -0.000000 0.000000 -5.533002 -2.090863 6.818923 -0.504765 -1.142262 23.842613 0.431671 -10.883019 8.234054 -0.235872 -1.243248 -31.238161 0.000000 -0.000000 0.000000 0.000000 -0.000000 0.000000 0.000000 -0.000000 0.000000 -3.773948 3.963822 -5.937155 0.089702 0.262834 18.834948 7.034609 6.300440 19.994678 0.344532 0.886061 -30.425791 0.000000 -0.000000 -0.000000 -0.000000 -0.000000 0.000000 0.000000 0.000000 -0.000000 
17.188349 86.362564 11.071271 2.800038 -2.145084 -6.835739 -4.028689 -0.186522 5.058321 4.208183 -0.438126 -4.215231 -5.342411 2.832377 14.442839 -0.093790 0.430104 -2.060388 4.661253 2.339733 10.812924 -2.768072 0.796653 -7.664066 0.909674 3.565776 -23.995045 0.000000 0.000000 0.000000 98.723679 -0.952876 5.743311 54.345825 -34.391338 6.510430 2.784011 21.905998 37.603909 1.279812 13.369752 -11.532693 9.441424 -1.728222 40.406590 0.000000 -0.000000 -23.040001 -0.000000 0.000000 -16.000000 0.000000 0.000000 0.000000 10.797807 0.000000 -8.774284 7.558465 -0.000000 -0.000000 7.558465 -0.000000 -0.000000 -0.000000 -0.000000 -0.000000 11.612747 -0.000000 -10.508621 8.128922 0.000000 -0.000000 8.128922 -0.000000 -0.000000 -0.000000 0.000000 0.000000 13.738558 -0.000000 -11.119148 9.616990 -0.000000 0.000000 9.616990 -0.000000 -0.000000 -0.000000 -0.000000 -0.000000 15.096603 0.000000 -13.561560 10.567622 0.000000 0.000000 10.567622 0.000000 0.000000 0.000000 0.000000 -0.000000 0.000000 -0.000000 -0.000000 0.000000 0.000000 -0.000000 -94.567085 0.396576 3.351599 -43.842205 31.955704 10.900848 -3.769055 -17.600067 51.492352 -1.886875 -0.493403 -16.202934 -12.135554 1.950834 39.216908 -0.000000 0.000000 -29.520000 0.000000 -0.000000 -20.500000 -0.000000 0.000000 0.000000 -27.029522 0.000000 -10.503970 -18.920666 -0.000000 0.000000 -18.920666 -0.000000 -0.000000 -0.000000 -0.000000 -0.000000 -24.903408 0.000000 -11.428580 -17.432386 -0.000000 0.000000 -17.432386 0.000000 -0.000000 0.000000 0.000000 -0.000000 -20.967625 0.000000 -10.301781 -14.677338 -0.000000 -0.000000 -14.677338 -0.000000 0.000000 0.000000 -0.000000 -0.000000 -16.035723 -0.000000 -10.013634 -11.225006 0.000000 0.000000 -11.225006 -0.000000 0.000000 0.000000 0.000000 -0.000000 0.000000 0.000000 0.000000 -0.000000 -0.000000 0.000000 -5.252796 -1.987470 7.466565 -0.460017 -1.108676 22.536432 -0.052730 -11.378413 7.738860 -0.300919 -1.144851 -30.317747 0.000000 -0.000000 0.000000 0.000000 0.000000 -0.000000 0.000000 -0.000000 0.000000 -3.611851 3.773216 -6.070133 0.096533 0.282848 18.844507 6.706937 6.412795 20.317945 0.366385 0.881472 -30.478601 0.000000 -0.000000 -0.000000 -0.000000 -0.000000 0.000000 0.000000 0.000000 0.000000 
16.700155 86.346268 10.640878 2.800317 -2.189438 -6.975003 -5.306937 0.140058 4.355783 8.724435 -1.563613 -2.363187 -9.853399 4.412566 12.733293 0.977174 0.320126 -1.807235 4.504426 2.416004 10.841911 -2.818499 0.827553 -7.689245 0.825946 3.544130 -24.050632 -0.000000 0.000000 0.000000 98.852020 -1.005584 5.965080 53.252396 -34.472198 8.181031 2.518190 21.872967 37.978806 1.246332 13.350613 -11.435118 9.740283 -1.758438 40.271706 -0.000000 0.000000 -23.760000 0.000000 -0.000000 -16.500000 0.000000 0.000000 0.000000 11.013163 0.000000 -8.765255 7.709214 -0.000000 -0.000000 7.709214 -0.000000 0.000000 0.000000 0.000000 -0.000000 11.791307 0.000000 -10.527427 8.253916 0.000000 0.000000 8.253916 0.000000 0.000000 -0.000000 -0.000000 0.000000 13.834978 0.000000 -11.185131 9.684484 0.000000 0.000000 9.684484 0.000000 0.000000 -0.000000 -0.000000 -0.000000 15.106940 0.000000 -13.643723 10.574858 0.000000 0.000000 10.574858 0.000000 -0.000000 -0.000000 -0.000000 0.000000 0.000000 -0.000000 -0.000000 0.000000 0.000000 -0.000000 -94.316544 0.388017 3.443979 -43.285004 31.883226 12.154578 -3.732099 -18.524124 51.862839 -1.837343 0.425982 -15.736254 -12.135554 1.950834 39.216908 -0.000000 -0.000000 -29.520000 0.000000 -0.000000 -20.500000 -0.000000 0.000000 0.000000 -27.245354 0.000000 -10.153006 -19.071749 -0.000000 0.000000 -19.071749 -0.000000 -0.000000 -0.000000 0.000000 0.000000 -25.029804 -0.000000 -11.112180 -17.520863 0.000000 -0.000000 -17.520863 -0.000000 -0.000000 0.000000 0.000000 -0.000000 -20.920937 0.000000 -10.062317 -14.644656 -0.000000 -0.000000 -14.644656 -0.000000 0.000000 0.000000 0.000000 -0.000000 -15.848294 -0.000000 -9.850610 -11.093806 -0.000000 0.000000 -11.093806 0.000000 0.000000 0.000000 0.000000 0.000000 -0.000000 -0.000000 0.000000 -0.000000 -0.000000 0.000000 -4.705607 -1.596202 7.902912 -0.418984 -1.064057 21.494053 -0.509976 -12.054724 7.568593 -0.327293 -1.093673 -29.793652 0.000000 -0.000000 0.000000 0.000000 -0.000000 0.000000 0.000000 -0.000000 0.000000 -3.253350 3.608564 -6.233775 0.103294 0.302623 18.846518 6.363129 6.492141 20.654236 0.385349 0.879312 -30.533047 0.000000 -0.000000 -0.000000 -0.000000 -0.000000 0.000000 0.000000 0.000000 0.000000 
16.188911 86.353561 10.193804 2.647921 -2.246412 -7.130189 -6.052539 0.346712 3.452548 11.925607 -2.595517 0.180223 -13.184733 5.395796 10.351182 1.708804 0.263220 -1.379878 4.348958 2.488465 10.828890 -2.887528 0.805309 -7.704620 0.742790 3.516362 -24.050797 -0.000000 0.000000 0.000000 98.847000 -1.031889 6.117261 52.252041 -34.963150 9.759708 2.205244 22.105343 38.436752 1.119140 13.223806 -11.317622 9.740283 -1.758438 40.271706 0.000000 0.000000 -23.760000 0.000000 -0.000000 -16.500000 -0.000000 0.000000 0.000000 11.245445 -0.000000 -8.876249 7.871811 -0.000000 0.000000 7.871811 0.000000 -0.000000 -0.000000 0.000000 -0.000000 12.007862 0.000000 -10.629989 8.405503 -0.000000 -0.000000 8.405503 0.000000 0.000000 0.000000 0.000000 0.000000 14.028481 -0.000000 -11.284712 9.819937 0.000000 0.000000 9.819937 0.000000 0.000000 0.000000 -0.000000 0.000000 15.269865 -0.000000 -13.728007 10.688906 0.000000 0.000000 10.688906 0.000000 -0.000000 0.000000 0.000000 -0.000000 0.000000 -0.000000 -0.000000 0.000000 0.000000 -0.000000 -94.102898 0.383650 3.582118 -43.008915 31.630951 13.207418 -3.642888 -19.073282 52.256649 -1.662846 0.967399 -15.379391 -12.135554 1.950834 39.216908 -0.000000 0.000000 -29.520000 0.000000 0.000000 -20.500000 -0.000000 0.000000 0.000000 -27.617979 0.000000 -9.877830 -19.332586 0.000000 -0.000000 -19.332586 -0.000000 -0.000000 -0.000000 0.000000 0.000000 -25.347706 0.000000 -10.869537 -17.743393 0.000000 -0.000000 -17.743393 -0.000000 0.000000 -0.000000 0.000000 -0.000000 -21.136139 0.000000 -9.874324 -14.795298 0.000000 0.000000 -14.795298 -0.000000 -0.000000 0.000000 0.000000 -0.000000 -15.961884 0.000000 -9.687832 -11.173319 0.000000 0.000000 -11.173319 -0.000000 -0.000000 -0.000000 0.000000 0.000000 0.000000 0.000000 0.000000 -0.000000 -0.000000 0.000000 -3.942326 -1.055416 8.308592 -0.381261 -1.020530 20.486416 -0.977186 -12.852455 7.671043 -0.334821 -1.068307 -29.507776 0.000000 -0.000000 0.000000 0.000000 -0.000000 0.000000 0.000000 -0.000000 0.000000 -2.721774 3.457195 -6.385819 0.110118 0.322332 18.851242 6.006886 6.552616 20.996664 0.403276 0.880036 -30.584852 0.000000 -0.000000 -0.000000 -0.000000 -0.000000 0.000000 0.000000 0.000000 0.000000 
15.661353 86.383385 9.743687 2.356483 -2.265714 -7.355758 -6.271339 0.445998 2.698652 13.724284 -3.381910 2.555723 -15.061967 5.798084 8.277265 1.992026 0.252066 -1.007006 4.197917 2.572055 10.777742 -2.967834 0.778654 -7.713900 0.665217 3.487654 -23.994890 -0.000000 -0.000000 0.000000 98.672569 -1.042589 6.301355 51.464111 -35.415592 11.214298 1.877668 22.382259 38.908089 1.101979 13.134212 -11.234180 9.740283 -1.758438 40.271706 0.000000 0.000000 -23.760000 0.000000 -0.000000 -16.500000 -0.000000 0.000000 -0.000000 11.415580 -0.000000 -8.668139 7.990906 0.000000 0.000000 7.990906 0.000000 0.000000 0.000000 -0.000000 0.000000 12.137925 0.000000 -10.429526 8.496548 0.000000 0.000000 8.496548 -0.000000 0.000000 -0.000000 0.000000 0.000000 14.056646 0.000000 -11.087507 9.839653 -0.000000 -0.000000 9.839653 0.000000 0.000000 -0.000000 -0.000000 -0.000000 15.187986 0.000000 -13.516347 10.631591 0.000000 0.000000 10.631591 0.000000 0.000000 -0.000000 -0.000000 -0.000000 0.000000 -0.000000 -0.000000 0.000000 0.000000 -0.000000 -93.908157 0.376767 3.682209 -42.981602 31.492907 14.080451 -3.652202 -19.678450 52.696972 -1.493297 1.645777 -14.970302 -12.435397 1.968814 39.088257 -0.000000 -0.000000 -30.240000 0.000000 0.000000 -21.000000 0.000000 -0.000000 0.000000 -28.027555 -0.000000 -9.565514 -19.619289 -0.000000 -0.000000 -19.619289 0.000000 0.000000 0.000000 -0.000000 -0.000000 -25.739330 -0.000000 -10.562284 -18.017530 -0.000000 0.000000 -18.017530 0.000000 0.000000 0.000000 0.000000 -0.000000 -21.510803 -0.000000 -9.588750 -15.057562 -0.000000 0.000000 -15.057562 0.000000 -0.000000 0.000000 0.000000 -0.000000 -16.318180 -0.000000 -9.410719 -11.422726 0.000000 0.000000 -11.422726 -0.000000 -0.000000 0.000000 0.000000 -0.000000 0.000000 -0.000000 0.000000 -0.000000 -0.000000 0.000000 -2.974474 -0.347019 8.825385 -0.348929 -0.991503 19.389156 -1.462057 -13.784791 8.040265 -0.324345 -1.057273 -29.431448 0.000000 -0.000000 0.000000 0.000000 0.000000 -0.000000 0.000000 -0.000000 0.000000 -2.042210 3.227395 -6.459302 0.116771 0.342202 18.841787 5.637742 6.639172 21.355682 0.422561 0.885310 -30.631208 0.000000 -0.000000 -0.000000 -0.000000 -0.000000 0.000000 0.000000 0.000000 0.000000 
